<?xml version="1.0" encoding="utf-8"?>
<!-- Generator: Adobe Illustrator 24.1.2, SVG Export Plug-In . SVG Version: 6.00 Build 0)  -->
<svg version="1.1" id="Слой_1" xmlns="http://www.w3.org/2000/svg" xmlns:xlink="http://www.w3.org/1999/xlink" x="0px" y="0px"
	 viewBox="0 0 512 512" style="enable-background:new 0 0 512 512;" xml:space="preserve">
<style type="text/css">
	.st0{opacity:0.83;}
	.st1{fill:url(#SVGID_1_);}
	.st2{fill:#FFFFFF;}
</style>
<g class="st0">
	<linearGradient id="SVGID_1_" gradientUnits="userSpaceOnUse" x1="67" y1="256.1016" x2="461.7145" y2="256.1016">
		<stop  offset="0" style="stop-color:#009C8B"/>
		<stop  offset="0" style="stop-color:#3F2D87"/>
		<stop  offset="0.5056" style="stop-color:#AA2B87"/>
		<stop  offset="1" style="stop-color:#D51317"/>
	</linearGradient>
	<path class="st1" d="M266,455c-109.73,0-199-89.27-199-199c0-52.69,20.39-102.34,57.41-139.82
		c35.57-36.01,82.56-56.81,132.88-58.97c-15.01,5.97-28.9,14.69-41.36,25.98c-19.28,14.97-33.7,33.81-42.78,55.95
		c-12.26,19.66-19.08,41.61-20.27,65.24l1.83,45.52l0.01,0.07c5.5,31.56,18.7,60.04,39.24,84.67l0.04,0.05l35.29,32.16l0.06,0.04
		c25.81,17.63,54.67,28,85.79,30.83c5.9,0.74,11.85,1.11,17.66,1.11c17.17,0,34.02-3.28,50.08-9.75
		c16.96-3.7,32.75-10.49,47.02-20.2C392.65,422.91,331.79,455,266,455z"/>
	<path d="M251.59,58.53c-13.06,5.87-25.23,13.86-36.27,23.86c-19.43,15.11-33.91,34.04-43.06,56.29
		c-12.32,19.79-19.18,41.88-20.38,65.65l0,0.09l0,0.09l1.83,45.36l0.01,0.13l0.02,0.13c5.53,31.73,18.81,60.38,39.46,85.14
		l0.09,0.11l0.1,0.09l17.59,16.04l17.59,16.04l0.1,0.09l0.12,0.08c25.94,17.72,54.95,28.15,86.23,31
		c5.96,0.74,11.94,1.12,17.78,1.12c17.27,0,34.22-3.29,50.38-9.79c15.32-3.36,29.7-9.21,42.87-17.45
		C388.77,423.76,329.71,454,266,454c-26.73,0-52.66-5.23-77.07-15.56c-23.58-9.97-44.75-24.25-62.94-42.43
		c-18.18-18.18-32.46-39.36-42.43-62.94C73.23,308.66,68,282.73,68,256c0-52.42,20.29-101.83,57.12-139.12
		C159.16,82.42,203.7,61.96,251.59,58.53 M263.31,56.03C154.09,57.48,66,146.44,66,256c0,110.46,89.54,200,200,200
		c70.28,0,132.09-36.26,167.76-91.09c-15.38,11.38-32.43,19.12-51.18,23.2c-16.04,6.47-32.64,9.71-49.79,9.71
		c-5.79,0-11.65-0.37-17.57-1.11c-31.09-2.83-59.53-13.04-85.31-30.66c-11.73-10.69-23.46-21.38-35.19-32.07
		c-20.52-24.61-33.53-52.68-39.02-84.21c-0.61-15.12-1.22-30.24-1.83-45.36c1.19-23.59,7.91-45.21,20.17-64.83
		c9.06-22.11,23.25-40.67,42.56-55.67C230.61,71.24,246.19,61.95,263.31,56.03L263.31,56.03z"/>
</g>
<g>
	<path class="st2" d="M382.58,388.11c-4.52,1.83-9.09,3.38-13.7,4.69c9.19-2.04,18.11-4.78,26.7-8.19
		C391.34,385.98,387.01,387.15,382.58,388.11z"/>
</g>
<g>
	<path class="st2" d="M154.2,212.31c-0.12,2.72-0.2,5.44-0.2,8.19c0,7.67,0.49,15.22,1.44,22.63
		C155.02,232.86,154.61,222.58,154.2,212.31z"/>
</g>
<g>
	<path class="st2" d="M175.85,135.39c-1.6,2.9-3.12,5.84-4.56,8.83c0.89-1.56,1.8-3.1,2.76-4.64
		C174.63,138.18,175.23,136.78,175.85,135.39z"/>
</g>
<g>
	<path class="st2" d="M197.45,336.47c8.89,10.19,18.93,19.35,29.93,27.28C217.4,354.65,207.43,345.56,197.45,336.47z"/>
</g>
</svg>
