<?xml version="1.0" encoding="utf-8"?>
<!-- Generator: Adobe Illustrator 24.1.2, SVG Export Plug-In . SVG Version: 6.00 Build 0)  -->
<svg version="1.1" id="Слой_1" xmlns="http://www.w3.org/2000/svg" xmlns:xlink="http://www.w3.org/1999/xlink" x="0px" y="0px"
	 viewBox="0 0 512 512" style="enable-background:new 0 0 512 512;" xml:space="preserve">
<style type="text/css">
	.st0{opacity:0.83;}
	.st1{fill:url(#SVGID_1_);}
	.st2{fill:#FFFFFF;}
</style>
<g class="st0">
	<linearGradient id="SVGID_1_" gradientUnits="userSpaceOnUse" x1="65" y1="255.9761" x2="470.2874" y2="255.9761">
		<stop  offset="0" style="stop-color:#009C8B"/>
		<stop  offset="0" style="stop-color:#3F2D87"/>
		<stop  offset="0.5056" style="stop-color:#AA2B87"/>
		<stop  offset="1" style="stop-color:#D51317"/>
	</linearGradient>
	<path class="st1" d="M266,457c-110.83,0-201-90.17-201-201c0-53.22,20.59-103.37,57.99-141.23
		c37.36-37.82,87.19-59.04,140.31-59.74l6.21-0.08l-5.87,2.03c-16.94,5.85-32.54,15.17-46.36,27.68
		c-19.14,14.87-33.36,33.46-42.31,55.31l-0.03,0.08l-0.04,0.07c-12.11,19.39-18.84,41.04-20.02,64.35l1.83,45.2
		c5.44,31.16,18.48,59.29,38.75,83.62l35.08,31.98c25.51,17.41,54.03,27.65,84.78,30.45c5.88,0.73,11.75,1.1,17.48,1.1
		c16.94,0,33.56-3.24,49.41-9.64l0.08-0.03l0.08-0.02c18.5-4.03,35.59-11.78,50.79-23.03l4.46-3.3l-3.02,4.65
		C397.31,422.78,334.28,457,266,457z"/>
	<path d="M263.31,56.03c-17.12,5.92-32.69,15.2-46.7,27.89c-19.31,15-33.5,33.56-42.56,55.67c-12.26,19.63-18.98,41.24-20.17,64.83
		c0.61,15.12,1.22,30.24,1.83,45.36c5.5,31.53,18.5,59.6,39.02,84.21c11.73,10.69,23.46,21.38,35.19,32.07
		c25.79,17.61,54.23,27.83,85.31,30.66c5.92,0.74,11.77,1.11,17.57,1.11c17.15,0,33.75-3.24,49.79-9.71
		c18.74-4.08,35.8-11.82,51.18-23.2C398.09,419.74,336.28,456,266,456c-110.46,0-200-89.54-200-200
		C66,146.44,154.09,57.48,263.31,56.03 M275.69,53.87l-12.41,0.16c-26.98,0.36-53.11,5.95-77.67,16.61
		c-23.75,10.31-45.06,24.92-63.33,43.42C84.7,152.11,64,202.52,64,256c0,27.27,5.34,53.72,15.88,78.63
		c10.17,24.05,24.74,45.66,43.29,64.21c18.55,18.55,40.15,33.12,64.21,43.29C212.28,452.66,238.73,458,266,458
		c68.62,0,131.96-34.39,169.44-92l6.05-9.3l-8.91,6.6c-15.09,11.17-32.05,18.86-50.41,22.86l-0.17,0.04l-0.16,0.06
		c-15.73,6.35-32.23,9.57-49.04,9.57c-5.68,0-11.51-0.37-17.32-1.09l-0.03,0l-0.03,0c-30.55-2.78-58.9-12.95-84.25-30.24
		l-17.49-15.94l-17.49-15.94c-20.12-24.16-33.06-52.1-38.48-83.03l-1.82-45.14c1.18-23.11,7.86-44.56,19.86-63.78l0.09-0.14
		l0.06-0.16c8.88-21.68,22.99-40.13,41.94-54.85l0.06-0.05l0.06-0.05c13.72-12.42,29.2-21.67,46.01-27.48L275.69,53.87L275.69,53.87
		z"/>
</g>
<g>
	<path class="st2" d="M175.85,135.39c-1.6,2.9-3.12,5.84-4.56,8.83c0.89-1.56,1.8-3.1,2.76-4.64
		C174.63,138.18,175.23,136.78,175.85,135.39z"/>
	<path d="M175.85,135.39c-1.6,2.9-3.12,5.84-4.56,8.83c0.89-1.56,1.8-3.1,2.76-4.64C174.63,138.18,175.23,136.78,175.85,135.39
		L175.85,135.39z"/>
</g>
</svg>
