<?xml version="1.0" encoding="utf-8"?>
<!-- Generator: Adobe Illustrator 24.1.2, SVG Export Plug-In . SVG Version: 6.00 Build 0)  -->
<svg version="1.1" id="Слой_1" xmlns="http://www.w3.org/2000/svg" xmlns:xlink="http://www.w3.org/1999/xlink" x="0px" y="0px"
	 viewBox="0 0 1061.02 198.03" style="enable-background:new 0 0 1061.02 198.03;" xml:space="preserve">
<style type="text/css">
	.st0{opacity:0.42;}
	.st1{fill:none;stroke:#0000FF;stroke-width:0.4;stroke-linecap:round;stroke-miterlimit:10;}
</style>
<g class="st0">
	<path class="st1" d="M-17,43c14.07-10.29,36.5-23.23,64-23c39.97,0.34,50.77,28.18,86,42c72.78,28.54,130.76-49.46,250-44
		c46.49,2.13,66.51,15.31,69,27c1.34,6.29-2.07,13.69,3,23c1.77,3.25,4.71,6.99,16,14c15.84,9.83,23.76,14.75,32,15
		c16.85,0.51,34.36-13.05,41-29c7.94-19.07-4-31.1,5-45c4.11-6.35,11.89-11.99,37-16c38.96-6.21,87.76,43.32,97,45
		c73.1,13.33,51.68-19.61,86-19c51.33,0.91,61.1-23.82,96-13c28.61,8.87,26.69,26.93,67,48c20.86,10.9,49.25,25.75,76,17
		c29.51-9.65,49.03-45.41,53-88"/>
	<path class="st1" d="M-16.9,45.93c8.4-6.05,19.79-13.05,33.46-17.5c9.24-3,19.32-4.84,30.23-4.66c4.12,0.07,7.93,0.42,11.52,1.01
		c24.6,4.03,37.1,19.06,57.28,31.37c5.09,3.09,10.59,6.02,16.84,8.52c11.33,4.53,22.26,6.53,33.29,6.59
		c42.8,0.11,85.06-28.88,142.9-43.4c21.67-5.44,45.01-8.9,71.75-7.72c15.45,0.66,27.78,3,38.25,5.8c8.78,2.35,15.28,4.99,20.5,8.18
		c6.76,4.13,10.38,8.86,11.5,13.36c1.55,6.29-1.56,13.7,3.73,22.96c1.86,3.24,4.87,6.95,16.01,13.83
		c15.68,9.67,23.63,14.51,31.93,14.8c5.67,0.19,11.42-1.18,16.8-3.71c10.48-4.9,19.73-14.19,24.27-24.54
		c8.15-18.57-3.39-30.44,5.82-43.98c4.24-6.24,12.15-11.75,36.94-15.67c5.1-0.8,10.38-0.67,15.71,0.18
		c35.49,5.59,72.99,42.23,81.16,43.68c71.99,12.81,51.08-19.81,85.58-19.3c47.03,0.7,58.69-20.87,88.35-15.09
		c2.29,0.44,4.68,1.04,7.19,1.83c28.69,8.94,27.24,26.83,67.01,47.64c13,6.81,28.88,15.11,45.56,18.35
		c9.96,1.92,20.19,2.02,30.22-1.13c29.4-9.29,49.23-44.11,54.08-85.81"/>
	<path class="st1" d="M-16.8,48.85c8.37-5.94,19.74-12.84,33.38-17.06c9.3-2.88,19.23-4.51,30.01-4.25
		c4.07,0.1,7.86,0.48,11.45,1.07c24.5,4.03,36.92,18.18,57.1,30.26c5.12,3.04,10.57,5.96,16.75,8.48
		c11.19,4.56,21.93,6.74,32.96,6.88c42.5,0.55,84.99-28.34,141.95-43.44c21.73-5.76,44.51-9.62,70.99-8.5
		c15.52,0.61,27.7,3.38,38.72,6.3c9,2.4,15.37,4.8,20.89,8.05c6.91,4.06,10.63,8.81,11.89,13.32c1.76,6.29-1.09,13.72,4.45,22.92
		c1.95,3.24,5.02,6.9,16.02,13.66c15.52,9.51,23.5,14.28,31.86,14.6c5.64,0.2,11.37-1.11,16.75-3.56
		c10.39-4.74,19.72-13.78,24.41-23.94c8.34-18.07-2.77-29.79,6.63-42.96c4.37-6.13,12.4-11.5,36.88-15.35
		c5.09-0.79,10.34-0.66,15.65,0.16c35.64,5.4,72.76,41.12,81.09,42.57c70.87,12.31,50.46-19.18,85.16-19.59
		c46.46-0.56,57.92-21.37,87.92-15.36c2.28,0.45,4.67,1.05,7.17,1.84c28.78,9.01,27.79,26.73,67.01,47.28
		c12.97,6.81,28.75,15.06,45.43,18.35c9.9,1.94,20.1,2.1,30.13-0.92c29.29-8.92,49.44-42.82,55.16-83.62"/>
	<path class="st1" d="M-16.71,51.78c8.35-5.83,19.69-12.62,33.29-16.62c9.35-2.75,19.13-4.19,29.79-3.84
		c4.03,0.14,7.79,0.53,11.37,1.13c24.41,4.04,36.72,17.36,56.92,29.15c5.14,3,10.56,5.89,16.66,8.43
		c11.04,4.59,21.6,6.93,32.63,7.17c42.2,0.92,84.92-27.82,141.01-43.48c21.79-6.08,44.02-10.28,70.22-9.28
		c15.58,0.6,27.61,3.76,39.19,6.81c9.23,2.45,15.45,4.62,21.27,7.92c7.05,3.99,10.86,8.76,12.28,13.27
		c1.98,6.29-0.6,13.74,5.18,22.88c2.04,3.23,5.18,6.86,16.04,13.49c15.35,9.34,23.36,14.06,31.79,14.4
		c5.61,0.23,11.32-1.03,16.69-3.41c10.29-4.57,19.71-13.38,24.54-23.33c8.53-17.56-2.15-29.13,7.45-41.94
		c4.51-6.02,12.66-11.25,36.82-15.02c5.07-0.78,10.3-0.65,15.58,0.13c35.78,5.29,72.53,40.02,81.02,41.46
		c69.75,11.82,49.84-18.95,84.73-19.89c45.87-1.24,57.13-21.79,87.48-15.63c2.28,0.46,4.66,1.06,7.15,1.85
		c28.86,9.07,28.34,26.63,67.02,46.91c12.93,6.8,28.62,15,45.31,18.36c9.85,1.96,20.02,2.21,30.05-0.71
		c29.21-8.49,49.64-41.52,56.24-81.44"/>
	<path class="st1" d="M-16.61,54.71c8.33-5.73,19.64-12.41,33.2-16.18c9.4-2.62,19.04-3.87,29.57-3.43
		c3.98,0.17,7.71,0.59,11.3,1.19c24.31,4.05,36.53,16.5,56.74,28.04c5.16,2.95,10.54,5.83,16.56,8.39
		c10.9,4.62,21.27,7.12,32.29,7.46c41.91,1.29,84.85-27.32,140.06-43.52c21.85-6.41,43.53-10.99,69.45-10.06
		c15.65,0.56,27.52,4.14,39.66,7.31c9.46,2.49,15.54,4.45,21.66,7.79c7.18,3.92,11.1,8.7,12.67,13.23
		c2.19,6.29-0.1,13.76,5.91,22.84c2.13,3.22,5.33,6.82,16.05,13.32c15.19,9.18,23.23,13.82,31.71,14.19
		c5.58,0.24,11.27-0.95,16.63-3.26c10.2-4.4,19.69-12.97,24.68-22.73c8.72-17.06-1.52-28.47,8.26-40.93
		c4.65-5.92,12.92-11.01,36.76-14.7c5.05-0.76,10.26-0.64,15.52,0.11c35.93,5.13,72.31,38.92,80.95,40.35
		c68.62,11.35,49.21-18.72,84.31-20.19c45.28-1.9,56.35-22.27,87.05-15.91c2.28,0.47,4.65,1.08,7.13,1.86
		c28.95,9.14,28.89,26.53,67.02,46.55c12.9,6.8,28.49,14.95,45.18,18.37c9.79,1.98,19.93,2.29,29.96-0.5
		c29.1-8.1,49.84-40.23,57.32-79.25"/>
	<path class="st1" d="M-16.51,57.63c8.3-5.62,19.6-12.19,33.12-15.75c9.46-2.49,18.95-3.54,29.35-3.03
		c3.94,0.2,7.64,0.64,11.22,1.24c24.22,4.05,36.34,15.64,56.56,26.93c5.18,2.9,10.53,5.77,16.47,8.35
		c10.75,4.66,20.94,7.31,31.96,7.75c41.61,1.66,84.78-26.84,139.11-43.56c21.92-6.75,43.03-11.7,68.68-10.85
		c15.72,0.52,27.44,4.52,40.13,7.82c9.69,2.54,15.62,4.27,22.05,7.66c7.32,3.86,11.34,8.65,13.07,13.19
		c2.4,6.29,0.39,13.77,6.64,22.8c2.23,3.22,5.49,6.77,16.06,13.15c15.02,9.01,23.1,13.59,31.64,13.99
		c5.55,0.26,11.22-0.87,16.57-3.11c10.1-4.23,19.67-12.56,24.81-22.13c8.89-16.55-0.89-27.81,9.08-39.91
		c4.79-5.81,13.17-10.81,36.7-14.37c5.03-0.76,10.22-0.63,15.46,0.09c36.08,4.96,72.08,37.81,80.87,39.23
		c67.5,10.89,48.58-18.48,83.89-20.49c44.69-2.54,55.57-22.75,86.62-16.18c2.27,0.48,4.64,1.09,7.1,1.87
		c29.03,9.21,29.44,26.43,67.03,46.19c12.87,6.8,28.37,14.89,45.05,18.37c9.74,1.99,19.85,2.38,29.87-0.29
		c29-7.71,50.04-38.93,58.4-77.06"/>
	<path class="st1" d="M-16.41,60.56c8.28-5.51,19.55-11.97,33.03-15.31c9.51-2.36,18.85-3.22,29.13-2.62
		c3.9,0.24,7.57,0.7,11.15,1.3c24.12,4.06,36.16,14.78,56.37,25.83c5.21,2.85,10.51,5.71,16.37,8.3c10.61,4.69,20.61,7.5,31.62,8.04
		c41.31,2.03,84.71-26.38,138.16-43.6c21.98-7.08,42.54-12.41,67.91-11.63c15.78,0.48,27.35,4.9,40.6,8.32
		c9.91,2.59,15.7,4.09,22.44,7.53c7.45,3.8,11.57,8.59,13.46,13.14c2.61,6.29,0.89,13.79,7.36,22.76
		c2.32,3.21,5.64,6.73,16.07,12.98c14.86,8.85,22.96,13.36,31.57,13.79c5.52,0.28,11.17-0.8,16.51-2.97
		c10-4.06,19.65-12.14,24.95-21.52c9.06-16.04-0.25-27.15,9.9-38.89c4.93-5.7,13.43-10.57,36.64-14.04
		c5.01-0.75,10.18-0.63,15.4,0.06c36.23,4.79,71.86,36.71,80.8,38.12c66.37,10.45,47.94-18.23,83.47-20.78
		c44.09-3.16,54.79-23.22,86.18-16.45c2.27,0.49,4.63,1.1,7.08,1.88c29.12,9.28,29.99,26.33,67.03,45.83
		c12.84,6.79,28.23,14.87,44.92,18.38c9.68,2.03,19.76,2.47,29.78-0.08c28.9-7.33,50.25-37.64,59.49-74.87"/>
	<path class="st1" d="M-16.32,63.49c8.25-5.4,19.51-11.74,32.94-14.87c9.57-2.23,18.76-2.9,28.91-2.21
		c3.85,0.27,7.49,0.75,11.08,1.36c24.03,4.06,35.97,13.92,56.19,24.72c5.23,2.79,10.49,5.64,16.28,8.26
		c10.46,4.72,20.27,7.69,31.29,8.33c41.01,2.39,84.64-25.94,137.22-43.64c22.05-7.42,42.05-13.12,67.14-12.41
		c15.85,0.45,27.26,5.28,41.06,8.83c10.14,2.64,15.78,3.92,22.82,7.4c7.57,3.75,11.81,8.54,13.85,13.1
		c2.82,6.29,1.38,13.8,8.09,22.72c2.41,3.21,5.8,6.68,16.08,12.81c14.7,8.69,22.83,13.13,31.5,13.59
		c5.49,0.29,11.12-0.72,16.45-2.82c9.9-3.9,19.62-11.73,25.09-20.92c9.23-15.53,0.4-26.49,10.71-37.87
		c5.07-5.6,13.69-10.33,36.59-13.72c4.99-0.74,10.14-0.62,15.34,0.04c36.38,4.62,71.63,35.61,80.73,37.01
		c65.23,10.02,47.3-17.98,83.05-21.08c43.48-3.77,54.02-23.7,85.75-16.72c2.27,0.5,4.61,1.11,7.06,1.89
		c29.2,9.34,30.54,26.24,67.04,45.47c12.8,6.79,28.1,14.82,44.8,18.39c9.63,2.05,19.67,2.55,29.69,0.14
		c28.79-6.95,50.45-36.34,60.57-72.68"/>
	<path class="st1" d="M-16.22,66.41c8.23-5.29,19.46-11.52,32.86-14.43c9.63-2.1,18.66-2.57,28.69-1.8c3.81,0.31,7.42,0.81,11,1.42
		c23.94,4.07,35.79,13.06,56.01,23.61c5.26,2.74,10.48,5.58,16.19,8.22c10.32,4.75,19.94,7.88,30.95,8.62
		c40.71,2.75,84.57-25.52,136.27-43.68c22.12-7.77,41.56-13.83,66.37-13.19c15.92,0.41,27.17,5.66,41.53,9.33
		c10.37,2.68,15.86,3.75,23.21,7.27c7.7,3.69,12.04,8.48,14.24,13.06c3.02,6.29,1.88,13.81,8.82,22.68
		c2.51,3.2,5.95,6.64,16.1,12.64c14.53,8.52,22.7,12.89,31.43,13.39c5.46,0.31,11.07-0.64,16.39-2.67
		c9.8-3.73,19.6-11.31,25.22-20.31c9.38-15.02,1.05-25.82,11.53-36.85c5.22-5.49,13.94-10.09,36.53-13.39
		c4.97-0.73,10.1-0.61,15.28,0.02c36.53,4.45,71.4,34.51,80.66,35.9c64.09,9.6,46.65-17.72,82.63-21.38
		c42.88-4.36,53.24-24.19,85.32-17c2.26,0.51,4.6,1.12,7.04,1.9c29.29,9.41,31.09,26.14,67.04,45.1
		c12.77,6.79,27.97,14.77,44.67,18.39c9.57,2.07,19.58,2.64,29.6,0.35c28.68-6.57,50.65-35.05,61.65-70.5"/>
	<path class="st1" d="M-16.12,69.34c8.21-5.19,19.42-11.29,32.77-14c9.69-1.96,18.57-2.25,28.47-1.39
		c3.76,0.34,7.34,0.86,10.93,1.48c23.84,4.08,35.6,12.19,55.83,22.5c5.28,2.69,10.46,5.52,16.09,8.17
		c10.17,4.78,19.61,8.07,30.62,8.91c40.41,3.11,84.5-25.12,135.32-43.72c22.19-8.12,41.07-14.54,65.6-13.97
		c15.98,0.37,27.09,6.04,42,9.84c10.59,2.73,15.94,3.58,23.6,7.14c7.83,3.64,12.28,8.43,14.64,13.01
		c3.23,6.29,2.38,13.83,9.54,22.64c2.6,3.2,6.1,6.62,16.11,12.47c14.35,8.39,22.56,12.66,31.36,13.19
		c5.43,0.33,11.02-0.57,16.33-2.52c9.7-3.57,19.56-10.89,25.36-19.71c9.53-14.5,1.7-25.16,12.35-35.83
		c5.37-5.39,14.2-9.85,36.47-13.06c4.95-0.72,10.06-0.61,15.22-0.01c36.68,4.28,71.18,33.41,80.59,34.78
		c62.95,9.19,46-17.45,82.2-21.67c42.27-4.93,52.46-24.67,84.88-17.27c2.26,0.52,4.59,1.13,7.02,1.91
		c29.38,9.48,31.64,26.04,67.05,44.74c12.74,6.78,27.84,14.72,44.54,18.4c9.51,2.09,19.5,2.72,29.51,0.56
		c28.58-6.18,50.85-33.75,62.73-68.31"/>
	<path class="st1" d="M-16.02,72.27c8.18-5.08,19.38-11.06,32.68-13.56c9.75-1.83,18.48-1.95,28.25-0.99
		c3.72,0.37,7.27,0.92,10.85,1.54c23.75,4.08,35.42,11.33,55.65,21.39c5.31,2.64,10.44,5.45,16,8.13
		c10.03,4.81,19.28,8.25,30.28,9.21c40.1,3.46,84.43-24.73,134.37-43.76c22.26-8.48,40.57-15.25,64.83-14.76
		c16.05,0.33,27,6.42,42.47,10.34c10.82,2.78,16.02,3.41,23.99,7.01c7.95,3.59,12.51,8.37,15.03,12.97
		c3.44,6.29,2.87,13.84,10.27,22.6c2.7,3.19,6.25,6.58,16.12,12.3c14.19,8.23,22.43,12.43,31.28,12.99
		c5.4,0.34,10.97-0.49,16.27-2.37c9.59-3.41,19.53-10.47,25.49-19.11c9.66-13.99,2.37-24.49,13.16-34.81
		c5.52-5.28,14.46-9.61,36.41-12.74c4.94-0.7,10.02-0.6,15.16-0.03c36.83,4.11,70.95,32.31,80.52,33.67
		c61.81,8.8,45.34-17.17,81.78-21.97c41.65-5.49,51.68-25.15,84.45-17.54c2.26,0.52,4.58,1.14,6.99,1.92
		c29.46,9.55,32.19,25.94,67.05,44.38c12.7,6.78,27.71,14.67,44.41,18.41c9.46,2.11,19.41,2.81,29.43,0.77
		c28.47-5.81,51.05-32.45,63.81-66.12"/>
	<path class="st1" d="M-15.93,75.2c8.16-4.97,19.34-10.83,32.6-13.12c9.81-1.69,18.39-1.63,28.03-0.58c3.67,0.4,7.2,0.97,10.78,1.59
		c23.65,4.09,35.24,10.46,55.46,20.28c5.33,2.59,10.43,5.39,15.9,8.09c9.88,4.84,18.95,8.44,29.95,9.5
		c39.8,3.82,84.35-24.36,133.43-43.8c22.33-8.84,40.08-15.97,64.07-15.54c16.12,0.29,26.91,6.8,42.94,10.85
		c11.05,2.83,16.09,3.25,24.37,6.88c8.07,3.55,12.75,8.32,15.42,12.93c3.65,6.29,3.37,13.85,11,22.56
		c2.79,3.19,6.41,6.54,16.13,12.13c14.02,8.07,22.29,12.19,31.21,12.79c5.37,0.36,10.92-0.41,16.21-2.22
		c9.49-3.25,19.48-10.04,25.63-18.5c9.79-13.48,3.03-23.82,13.98-33.8c5.68-5.18,14.72-9.37,36.35-12.41
		c4.92-0.69,9.98-0.6,15.1-0.05c36.98,3.93,70.72,31.21,80.44,32.56c60.67,8.42,44.68-16.88,81.36-22.27
		c41.04-6.02,50.91-25.64,84.01-17.82c2.25,0.53,4.57,1.15,6.97,1.93c29.55,9.61,32.77,25.77,67.06,44.02
		c12.68,6.75,27.58,14.62,44.29,18.41c9.4,2.13,19.32,2.89,29.34,0.98c28.36-5.43,51.26-31.16,64.89-63.93"/>
	<path class="st1" d="M-15.83,78.12c8.14-4.86,19.3-10.6,32.51-12.69c9.87-1.56,18.29-1.31,27.81-0.17
		c3.63,0.43,7.12,1.03,10.71,1.65c23.56,4.09,35.06,9.6,55.28,19.17c5.36,2.54,10.41,5.33,15.81,8.04
		c9.74,4.87,18.62,8.63,29.61,9.79c39.5,4.16,84.27-24.02,132.48-43.84c22.4-9.21,39.59-16.68,63.3-16.32
		c16.18,0.25,26.83,7.18,43.41,11.35c11.27,2.87,16.17,3.08,24.76,6.75c8.2,3.5,12.98,8.26,15.81,12.88
		c3.85,6.29,3.87,13.87,11.73,22.52c2.88,3.18,6.56,6.49,16.14,11.96c13.85,7.9,22.16,11.96,31.14,12.58
		c5.34,0.37,10.87-0.34,16.16-2.08c9.39-3.09,19.44-9.62,25.76-17.9c9.91-12.97,3.71-23.15,14.79-32.78
		c5.83-5.07,14.97-9.12,36.29-12.09c4.9-0.68,9.94-0.59,15.04-0.08c37.13,3.75,70.49,30.11,80.37,31.45
		c59.52,8.04,44.02-16.59,80.94-22.57c40.42-6.55,50.13-26.12,83.58-18.09c2.25,0.54,4.56,1.16,6.95,1.94
		c29.63,9.68,33.33,25.67,67.07,43.66c12.65,6.74,27.45,14.57,44.16,18.42c9.35,2.15,19.23,2.98,29.25,1.19
		c28.26-5.05,51.46-29.86,65.97-61.74"/>
	<path class="st1" d="M-15.73,81.05c8.11-4.76,19.26-10.37,32.42-12.25c9.93-1.42,18.2-0.98,27.6,0.24
		c3.59,0.47,7.05,1.08,10.63,1.71c23.47,4.1,34.88,8.73,55.1,18.06c5.39,2.49,10.4,5.26,15.72,8c9.59,4.9,18.28,8.81,29.28,10.08
		c39.2,4.51,84.18-23.68,131.53-43.88c22.47-9.58,39.1-17.4,62.53-17.1c16.25,0.21,26.74,7.56,43.88,11.86
		c11.5,2.92,16.24,2.92,25.15,6.62c8.32,3.46,13.21,8.21,16.2,12.84c4.06,6.29,4.37,13.88,12.45,22.48
		c2.98,3.17,6.71,6.45,16.16,11.79c13.69,7.74,22.03,11.72,31.07,12.38c5.31,0.39,10.81-0.26,16.1-1.93
		c9.28-2.93,19.39-9.19,25.9-17.29c10.02-12.47,4.39-22.47,15.61-31.76c5.99-4.96,15.23-8.88,36.23-11.76
		c4.88-0.67,9.9-0.59,14.98-0.1c37.28,3.58,70.26,29.01,80.3,30.33c58.38,7.68,43.35-16.28,80.52-22.86
		c39.81-7.05,49.35-26.61,83.15-18.36c2.25,0.55,4.55,1.18,6.93,1.95c29.72,9.75,33.88,25.57,67.07,43.29
		c12.62,6.74,27.32,14.52,44.03,18.43c9.29,2.17,19.14,3.06,29.16,1.4c28.15-4.67,51.66-28.57,67.05-59.56"/>
	<path class="st1" d="M-15.63,83.98c8.09-4.65,19.23-10.13,32.34-11.81c9.99-1.28,18.11-0.66,27.38,0.64
		c3.54,0.5,6.98,1.14,10.56,1.77c23.37,4.11,34.7,7.86,54.92,16.95c5.41,2.43,10.38,5.2,15.62,7.96c9.45,4.93,17.95,9,28.95,10.37
		c38.89,4.85,84.09-23.37,130.58-43.92c22.54-9.96,38.61-18.12,61.76-17.89c16.32,0.16,26.65,7.94,44.35,12.36
		c11.73,2.97,16.31,2.76,25.54,6.5c8.44,3.42,13.45,8.16,16.6,12.8c4.26,6.29,4.88,13.89,13.18,22.44
		c3.08,3.17,6.87,6.41,16.17,11.62c13.52,7.58,21.89,11.49,31,12.18c5.28,0.4,10.76-0.19,16.04-1.78
		c9.18-2.77,19.33-8.77,26.04-16.69c10.12-11.96,5.07-21.79,16.43-30.74c6.15-4.85,15.49-8.64,36.17-11.43
		c4.86-0.66,9.86-0.58,14.91-0.12c37.43,3.4,70.04,27.92,80.23,29.22c57.23,7.33,42.68-15.96,80.09-23.16
		c39.19-7.54,48.58-27.1,82.71-18.63c2.24,0.56,4.54,1.19,6.91,1.96c29.8,9.82,34.43,25.47,67.08,42.93
		c12.59,6.73,27.19,14.47,43.9,18.43c9.24,2.19,19.05,3.15,29.07,1.61c28.04-4.3,51.86-27.27,68.13-57.37"/>
	<path class="st1" d="M-15.54,86.9c8.06-4.54,19.19-9.89,32.25-11.37c10.05-1.14,18.01-0.34,27.16,1.05
		c3.5,0.53,6.9,1.19,10.48,1.83c23.28,4.11,34.52,6.99,54.74,15.84c5.44,2.38,10.36,5.14,15.53,7.91
		c9.31,4.96,17.62,9.18,28.61,10.66c38.59,5.19,84-23.07,129.64-43.96c22.61-10.35,38.12-18.43,60.99-18.67
		c16.38-0.17,26.56,8.32,44.81,12.87c11.95,3.02,16.38,2.6,25.92,6.37c8.56,3.38,13.68,8.1,16.99,12.75
		c4.47,6.29,5.38,13.9,13.91,22.4c3.17,3.16,7.02,6.37,16.18,11.45c13.36,7.42,21.76,11.25,30.93,11.98
		c5.25,0.42,10.71-0.11,15.98-1.63c9.07-2.61,19.27-8.34,26.17-16.08c10.22-11.46,5.76-21.11,17.24-29.72
		c6.32-4.74,15.75-8.39,36.11-11.11c4.84-0.65,9.82-0.58,14.85-0.15c37.58,3.22,69.81,26.82,80.16,28.11
		c56.08,6.98,42.02-15.63,79.67-23.46c38.58-8.02,47.8-27.59,82.28-18.91c2.24,0.56,4.53,1.2,6.88,1.97
		c29.89,9.88,34.98,25.37,67.08,42.57c12.56,6.73,27.06,14.42,43.78,18.44c9.18,2.21,18.97,3.23,28.98,1.82
		c27.93-3.93,52.06-25.98,69.21-55.18"/>
	<path class="st1" d="M-15.44,89.83c8.04-4.43,19.15-9.65,32.16-10.94c10.11-1,17.92-0.02,26.94,1.46
		c3.45,0.57,6.83,1.24,10.41,1.89c23.18,4.12,34.34,6.12,54.55,14.73c5.47,2.33,10.35,5.08,15.44,7.87
		c9.16,5,17.29,9.36,28.28,10.95c38.29,5.53,83.9-22.79,128.69-44c22.67-10.74,37.63-19.14,60.22-19.45
		c16.45-0.23,26.48,8.7,45.28,13.37c12.18,3.06,16.46,2.44,26.31,6.24c8.68,3.34,13.91,8.05,17.38,12.71
		c4.68,6.29,5.88,13.91,14.63,22.36c3.27,3.15,7.18,6.32,16.19,11.28c13.2,7.26,21.63,11.01,30.85,11.78
		c5.23,0.43,10.65-0.04,15.92-1.48c8.97-2.46,19.21-7.92,26.31-15.48c10.3-10.96,6.45-20.42,18.06-28.7
		c6.48-4.62,16.01-8.15,36.05-10.78c4.82-0.63,9.78-0.57,14.79-0.17c37.74,3.04,69.58,25.72,80.09,27
		c54.92,6.65,41.35-15.29,79.25-23.75c37.96-8.48,47.02-28.08,81.84-19.18c2.24,0.57,4.52,1.21,6.86,1.98
		c29.97,9.95,35.53,25.26,67.09,42.21c12.52,6.72,26.93,14.36,43.65,18.45c9.13,2.23,18.88,3.31,28.89,2.03
		c27.82-3.56,52.27-24.68,70.3-52.99"/>
	<path class="st1" d="M-15.34,92.76c8.02-4.32,19.12-9.41,32.08-10.5c10.17-0.86,17.83,0.3,26.72,1.87c3.41,0.6,6.76,1.3,10.33,1.94
		c23.09,4.12,34.16,5.25,54.37,13.62c5.49,2.27,10.33,5.01,15.34,7.82c9.02,5.03,16.96,9.55,27.94,11.24
		c37.99,5.86,83.8-22.52,127.74-44.04c22.74-11.14,37.14-19.85,59.45-20.23c16.51-0.28,26.39,9.08,45.75,13.88
		c12.41,3.11,16.53,2.29,26.7,6.11c8.8,3.3,14.15,8,17.77,12.67c4.88,6.29,6.38,13.92,15.36,22.32c3.36,3.15,7.33,6.28,16.2,11.11
		c13.03,7.1,21.49,10.78,30.78,11.58c5.2,0.45,10.6,0.03,15.86-1.34c8.86-2.3,19.14-7.5,26.44-14.88
		c10.37-10.47,7.14-19.73,18.87-27.69c6.65-4.51,16.27-7.91,35.99-10.45c4.81-0.62,9.74-0.57,14.73-0.19
		c37.89,2.85,69.35,24.63,80.01,25.88c53.77,6.32,40.68-14.94,78.83-24.05c37.35-8.92,46.25-28.58,81.41-19.45
		c2.23,0.58,4.51,1.22,6.84,1.99c30.06,10.02,36.08,25.16,67.09,41.85c12.49,6.72,26.8,14.31,43.52,18.45
		c9.07,2.25,18.79,3.39,28.81,2.24c27.71-3.19,52.47-23.39,71.38-50.8"/>
	<path class="st1" d="M-15.24,95.68c7.99-4.22,19.08-9.16,31.99-10.06c10.24-0.71,17.73,0.63,26.5,2.28c3.37,0.63,6.68,1.35,10.26,2
		c22.99,4.13,33.98,4.38,54.19,12.51c5.52,2.22,10.31,4.95,15.25,7.78c8.87,5.06,16.62,9.73,27.61,11.53
		c37.68,6.19,83.69-22.26,126.79-44.08c22.8-11.54,36.65-20.57,58.68-21.01c16.58-0.33,26.3,9.47,46.22,14.38
		c12.64,3.16,16.6,2.13,27.09,5.98c8.91,3.27,14.38,7.94,18.17,12.62c5.09,6.29,6.89,13.93,16.09,22.28
		c3.46,3.14,7.49,6.24,16.22,10.94c12.87,6.93,21.36,10.54,30.71,11.38c5.17,0.46,10.54,0.1,15.8-1.19
		c8.75-2.15,19.06-7.08,26.58-14.27c10.43-9.98,7.84-19.04,19.69-26.67c6.82-4.39,16.52-7.66,35.93-10.13
		c4.79-0.61,9.7-0.56,14.67-0.22c38.04,2.67,69.12,23.54,79.94,24.77c52.62,6,40.02-14.58,78.41-24.35
		c36.73-9.35,45.47-29.07,80.98-19.73c2.23,0.59,4.5,1.23,6.82,2c30.14,10.09,36.63,25.06,67.1,41.48
		c12.46,6.71,26.67,14.26,43.4,18.46c9.02,2.27,18.7,3.47,28.72,2.45c27.59-2.82,52.67-22.09,72.46-48.62"/>
	<path class="st1" d="M-15.15,98.61c7.97-4.11,19.05-8.92,31.9-9.62c10.3-0.57,17.64,0.95,26.28,2.68
		c3.32,0.67,6.61,1.41,10.19,2.06c22.9,4.14,33.8,3.51,54.01,11.4c5.54,2.17,10.3,4.89,15.15,7.74c8.73,5.09,16.29,9.91,27.27,11.82
		c37.38,6.52,83.57-22.02,125.85-44.12c22.86-11.95,36.16-21.29,57.91-21.8c16.65-0.39,26.22,9.85,46.69,14.89
		c12.86,3.21,16.67,1.98,27.47,5.85c9.03,3.23,14.61,7.89,18.56,12.58c5.29,6.29,7.39,13.94,16.82,22.24
		c3.56,3.13,7.64,6.2,16.23,10.77c12.7,6.77,21.23,10.3,30.64,11.18c5.14,0.47,10.49,0.17,15.74-1.04c8.64-2,18.98-6.66,26.71-13.67
		c10.49-9.5,8.54-18.34,20.51-25.65c6.99-4.27,16.78-7.42,35.88-9.8c4.77-0.6,9.66-0.56,14.61-0.24
		c38.19,2.48,68.89,22.44,79.87,23.66c51.46,5.69,39.35-14.2,77.99-24.65c36.13-9.77,44.7-29.57,80.54-20
		c2.23,0.59,4.49,1.24,6.8,2.01c30.23,10.15,37.18,24.96,67.1,41.12c12.43,6.71,26.54,14.2,43.27,18.47
		c8.96,2.29,18.61,3.56,28.63,2.66c27.48-2.45,52.87-20.8,73.54-46.43"/>
	<path class="st1" d="M-15.05,101.54c7.94-4,19.01-8.67,31.82-9.19c10.36-0.42,17.55,1.27,26.06,3.09c3.28,0.7,6.54,1.46,10.11,2.12
		c22.81,4.14,33.63,2.63,53.82,10.3c5.57,2.11,10.28,4.82,15.06,7.69c8.58,5.12,15.96,10.09,26.94,12.11
		c37.08,6.84,83.45-21.8,124.9-44.16c22.92-12.37,35.67-22.01,57.15-22.58c16.71-0.44,26.13,10.23,47.16,15.39
		c13.09,3.25,16.74,1.83,27.86,5.72c9.15,3.2,14.84,7.84,18.95,12.54c5.49,6.29,7.89,13.95,17.54,22.2
		c3.65,3.13,7.8,6.15,16.24,10.6c12.54,6.61,21.09,10.07,30.57,10.97c5.11,0.49,10.43,0.24,15.68-0.89
		c8.53-1.85,18.89-6.25,26.85-13.06c10.54-9.03,9.25-17.64,21.32-24.63c7.16-4.15,17.04-7.17,35.82-9.48
		c4.75-0.58,9.62-0.56,14.55-0.26c38.35,2.29,68.66,21.35,79.8,22.55c50.3,5.39,38.69-13.81,77.56-24.94
		c35.52-10.17,43.92-30.07,80.11-20.27c2.22,0.6,4.48,1.25,6.77,2.02c30.31,10.22,37.73,24.87,67.11,40.76
		c12.39,6.71,26.41,14.15,43.14,18.48c8.91,2.3,18.52,3.64,28.54,2.87c27.37-2.09,53.08-19.5,74.62-44.24"/>
	<path class="st1" d="M-14.95,104.46c7.92-3.89,18.98-9.15,31.73-8.75c10.42,0.33,17.45,1.59,25.84,3.5
		c3.23,0.73,6.46,1.52,10.04,2.18c22.71,4.15,33.45,1.76,53.64,9.19c5.6,2.06,10.27,4.76,14.97,7.65
		c8.44,5.15,15.63,10.27,26.6,12.4c36.78,7.16,83.33-21.58,123.95-44.2c22.97-12.79,35.17-22.74,56.38-23.36
		c16.78-0.49,26.04,10.61,47.63,15.9c13.32,3.3,16.81,1.68,28.25,5.59c9.27,3.17,15.08,7.78,19.34,12.49
		c5.7,6.29,8.4,13.96,18.27,22.17c3.75,3.12,7.95,6.11,16.25,10.43c12.37,6.45,20.96,9.83,30.5,10.77
		c5.08,0.5,10.38,0.31,15.62-0.74c8.42-1.7,18.8-5.84,26.98-12.46c10.58-8.56,9.95-16.93,22.14-23.61
		c7.34-4.02,17.3-6.92,35.76-9.15c4.73-0.57,9.58-0.55,14.49-0.29c38.5,2.1,68.43,20.26,79.73,21.43
		c49.14,5.09,38.04-13.41,77.14-25.24c34.92-10.57,43.15-30.57,79.68-20.54c2.22,0.61,4.47,1.26,6.75,2.03
		c30.4,10.29,38.29,24.77,67.12,40.4c12.36,6.7,26.28,14.1,43.01,18.48c8.86,2.32,18.43,3.72,28.45,3.08
		c27.26-1.72,53.28-18.21,75.7-42.05"/>
	<path class="st1" d="M-14.85,107.39c7.9-3.78,18.95-8.89,31.65-8.31c10.48,0.48,17.36,1.92,25.62,3.91
		c3.19,0.77,6.39,1.57,9.96,2.24c22.62,4.15,33.27,0.88,53.46,8.08c5.63,2.01,10.25,4.7,14.87,7.61c8.29,5.18,15.3,10.45,26.27,12.7
		c36.48,7.48,83.19-21.38,123-44.24c23.02-13.22,34.68-23.9,55.61-24.14c16.85-0.19,25.95,10.99,48.09,16.4
		c13.54,3.35,16.88,1.53,28.64,5.46c9.39,3.13,15.31,7.73,19.73,12.45c5.9,6.29,8.9,13.96,19,22.13c3.85,3.11,8.11,6.07,16.26,10.26
		c12.21,6.28,20.83,9.59,30.42,10.57c5.05,0.52,10.32,0.38,15.57-0.6c8.31-1.55,18.7-5.43,27.12-11.86
		c10.61-8.09,10.66-16.22,22.95-22.59c7.51-3.9,17.56-6.68,35.7-8.82c4.71-0.56,9.54-0.55,14.43-0.31
		c38.65,1.91,68.2,19.17,79.66,20.32c47.99,4.8,37.38-12.99,76.72-25.54c34.32-10.94,42.38-31.07,79.24-20.82
		c2.22,0.62,4.46,1.27,6.73,2.04c30.48,10.36,38.84,24.67,67.12,40.04c12.33,6.7,26.15,14.04,42.89,18.49
		c8.8,2.34,18.34,3.8,28.36,3.29c27.15-1.36,53.48-16.91,76.78-39.86"/>
	<path class="st1" d="M-14.76,110.32c7.87-3.68,18.93-8.62,31.56-7.87c10.53,0.62,17.27,2.24,25.4,4.32
		c3.15,0.8,6.32,1.63,9.89,2.29c22.52,4.16,33.1,0,53.28,6.97c5.65,1.95,10.23,4.64,14.78,7.56c8.15,5.21,14.97,10.62,25.93,12.99
		c36.18,7.8,83.05-21.19,122.06-44.28c23.07-13.66,34.18-24.63,54.84-24.92c16.92-0.24,25.87,11.37,48.56,16.91
		c13.77,3.4,16.95,1.39,29.02,5.33c9.51,3.1,15.54,7.68,20.13,12.41c6.11,6.3,9.41,13.97,19.72,22.09
		c3.94,3.1,8.27,6.02,16.28,10.09c12.05,6.12,20.69,9.35,30.35,10.37c5.02,0.53,10.27,0.45,15.51-0.45
		c8.2-1.41,18.6-5.03,27.26-11.25c10.63-7.64,11.37-15.5,23.77-21.57c7.69-3.77,17.82-6.43,35.64-8.5c4.7-0.55,9.5-0.55,14.37-0.33
		c38.81,1.72,67.97,18.09,79.58,19.21c46.83,4.52,36.73-12.56,76.3-25.84c33.72-11.31,41.6-31.57,78.81-21.09
		c2.22,0.62,4.45,1.29,6.71,2.05c30.57,10.42,39.38,24.57,67.13,39.67c12.3,6.69,26.03,13.99,42.76,18.5
		c8.75,2.36,18.25,3.87,28.27,3.5c27.04-1,53.68-15.62,77.86-37.68"/>
	<path class="st1" d="M-14.66,113.24c7.85-3.57,18.9-8.35,31.47-7.44c10.59,0.77,17.17,2.56,25.18,4.72
		c3.1,0.84,6.24,1.68,9.82,2.35c22.43,4.16,32.92-0.88,53.1,5.86c5.68,1.9,10.22,4.57,14.68,7.52c8,5.24,14.63,10.8,25.6,13.28
		c35.88,8.11,82.91-21.01,121.11-44.32c23.11-14.1,33.69-25.36,54.07-25.71c16.99-0.29,25.78,11.75,49.03,17.41
		c14,3.44,17.01,1.24,29.41,5.2c9.62,3.07,15.77,7.63,20.52,12.36c6.31,6.3,9.91,13.98,20.45,22.05c4.04,3.09,8.42,5.98,16.29,9.92
		c11.88,5.96,20.56,9.11,30.28,10.17c4.99,0.54,10.21,0.52,15.45-0.3c8.09-1.26,18.49-4.64,27.39-10.65
		c10.65-7.19,12.08-14.78,24.59-20.56c7.87-3.63,18.08-6.18,35.58-8.17c4.68-0.53,9.47-0.55,14.31-0.36
		c38.96,1.52,67.74,17,79.51,18.1c45.67,4.24,36.09-12.12,75.88-26.13c33.13-11.67,40.83-32.07,78.37-21.36
		c2.21,0.63,4.44,1.3,6.68,2.06c30.65,10.49,39.93,24.47,67.13,39.31c12.26,6.69,25.9,13.93,42.63,18.5
		c8.69,2.37,18.16,3.95,28.19,3.71c26.92-0.64,53.88-14.32,78.94-35.49"/>
	<path class="st1" d="M-14.56,116.17c7.82-3.46,18.83-7.4,31.39-7c10.68,0.34,17.08,2.89,24.96,5.13c3.06,0.87,6.17,1.74,9.74,2.41
		c22.33,4.17,32.75-1.75,52.91,4.75c5.71,1.84,10.2,4.51,14.59,7.48c7.86,5.27,14.3,10.97,25.26,13.57
		c35.58,8.42,82.75-20.84,120.16-44.36c23.15-14.55,33.2-26.09,53.3-26.49c17.05-0.34,25.69,12.13,49.5,17.92
		c14.22,3.49,17.08,1.1,29.8,5.07c9.74,3.04,16,7.57,20.91,12.32c6.51,6.3,10.42,13.98,21.18,22.01c4.14,3.08,8.58,5.94,16.3,9.75
		c11.72,5.79,20.43,8.88,30.21,9.97c4.96,0.55,10.15,0.58,15.39-0.15c7.98-1.12,18.38-4.26,27.53-10.04
		c10.67-6.75,12.8-14.06,25.4-19.54c8.04-3.5,18.33-5.93,35.52-7.84c4.66-0.52,9.43-0.54,14.24-0.38
		c39.11,1.32,67.51,15.92,79.44,16.98c44.51,3.97,35.45-11.66,75.45-26.43c32.54-12.02,40.06-32.58,77.94-21.64
		c2.21,0.64,4.43,1.31,6.66,2.06c30.74,10.56,40.48,24.38,67.14,38.95c12.23,6.69,25.77,13.87,42.5,18.51
		c8.64,2.39,18.07,4.24,28.1,3.93c26.8-0.84,54.09-13.03,80.02-33.3"/>
	<path class="st1" d="M-14.46,119.1c7.8-3.35,18.8-7.14,31.3-6.56c10.74,0.5,16.99,3.21,24.74,5.54c3.01,0.9,6.1,1.79,9.67,2.47
		c22.24,4.18,32.57-2.64,52.73,3.64c5.73,1.78,10.19,4.45,14.5,7.43c7.71,5.3,13.97,11.15,24.93,13.86
		c35.28,8.72,82.59-20.68,119.21-44.4c23.18-15.01,32.71-26.82,52.53-27.27c17.12-0.39,25.61,12.51,49.97,18.42
		c14.45,3.54,17.15,0.96,30.19,4.94c9.86,3.01,16.23,7.52,21.3,12.28c6.72,6.3,10.92,13.99,21.91,21.97
		c4.23,3.08,8.73,5.89,16.31,9.58c11.56,5.63,20.29,8.64,30.14,9.77c4.93,0.57,10.1,0.65,15.33,0c7.87-0.98,18.27-3.88,27.66-9.44
		c10.68-6.32,13.51-13.33,26.22-18.52c8.22-3.36,18.59-5.68,35.46-7.52c4.64-0.51,9.39-0.54,14.18-0.4
		c39.27,1.13,67.28,14.84,79.37,15.87c43.35,3.71,34.82-11.19,75.03-26.73c31.96-12.35,39.28-33.08,77.51-21.91
		c2.21,0.65,4.42,1.32,6.64,2.07c30.83,10.63,41.03,24.28,67.14,38.59c12.2,6.68,25.64,13.82,42.38,18.52
		c8.58,2.41,17.98,4.31,28.01,4.14c26.7-0.47,54.29-11.73,81.11-31.11"/>
	<path class="st1" d="M-14.37,122.02c7.78-3.25,18.76-6.88,31.21-6.12c10.8,0.66,16.89,3.53,24.52,5.95
		c2.97,0.94,6.02,1.85,9.59,2.53c22.15,4.18,32.4-3.52,52.55,2.53c5.76,1.73,10.17,4.38,14.4,7.39c7.57,5.34,13.64,11.32,24.6,14.15
		c34.99,9.03,82.42-20.53,118.27-44.44c23.2-15.48,32.22-27.55,51.76-28.05c17.19-0.44,25.52,12.89,50.44,18.93
		c14.68,3.59,17.22,0.82,30.57,4.81c9.98,2.99,16.47,7.47,21.7,12.24c6.92,6.31,11.43,13.99,22.63,21.93
		c4.33,3.07,8.89,5.85,16.32,9.41c11.39,5.46,20.16,8.4,30.07,9.56c4.9,0.58,10.04,0.71,15.27,0.15c7.76-0.84,18.15-3.51,27.8-8.84
		c10.69-5.9,14.22-12.6,27.04-17.5c8.4-3.21,18.85-5.43,35.4-7.19c4.62-0.49,9.35-0.54,14.12-0.43
		c39.42,0.93,67.05,13.76,79.3,14.76c42.19,3.45,34.2-10.7,74.61-27.02c31.39-12.68,38.51-33.59,77.07-22.18
		c2.2,0.65,4.41,1.33,6.62,2.08c30.91,10.69,41.58,24.18,67.15,38.22c12.16,6.68,25.51,13.76,42.25,18.52
		c8.53,2.43,17.89,4.18,27.92,4.35c26.59,0.43,54.49-10.44,82.19-28.93"/>
	<path class="st1" d="M-14.27,124.95c7.75-3.14,18.72-6.62,31.13-5.69c10.87,0.82,16.8,3.86,24.3,6.35c2.92,0.97,5.95,1.9,9.52,2.59
		c22.05,4.19,32.22-4.4,52.37,1.42c5.79,1.67,10.15,4.32,14.31,7.35c7.42,5.37,13.31,11.5,24.26,14.44
		c34.69,9.33,82.24-20.39,117.32-44.48c23.22-15.95,31.73-28.28,51-28.83c17.25-0.49,25.43,13.27,50.91,19.43
		c14.9,3.63,17.29,0.68,30.96,4.68c10.09,2.96,16.7,7.42,22.09,12.19c7.12,6.31,11.94,14,23.36,21.89c4.43,3.06,9.05,5.8,16.34,9.24
		c11.23,5.3,20.03,8.16,29.99,9.36c4.88,0.59,9.98,0.77,15.21,0.29c7.65-0.7,18.03-3.15,27.93-8.23
		c10.69-5.49,14.93-11.86,27.85-16.48c8.58-3.07,19.11-5.18,35.34-6.87c4.6-0.48,9.31-0.54,14.06-0.45
		c39.57,0.72,66.82,12.68,79.23,13.65c41.02,3.2,33.59-10.19,74.19-27.32c30.82-13,37.74-34.1,76.64-22.45
		c2.2,0.66,4.4,1.34,6.6,2.09c31,10.76,42.13,24.09,67.15,37.86c12.13,6.68,25.38,13.71,42.12,18.53c8.47,2.44,17.8,4.26,27.83,4.56
		c26.48,0.79,54.69-9.14,83.27-26.74"/>
	<path class="st1" d="M-14.17,127.88c7.73-3.03,18.69-6.36,31.04-5.25c10.93,0.98,16.71,4.18,24.08,6.76
		c2.88,1.01,5.88,1.96,9.44,2.64c21.96,4.19,32.05-5.28,52.19,0.31c5.82,1.62,10.14,4.26,14.21,7.3
		c7.28,5.4,12.98,11.67,23.93,14.73c34.4,9.63,82.05-20.25,116.37-44.52c23.24-16.43,31.23-29.01,50.23-29.62
		c17.32-0.55,25.34,13.65,51.38,19.94c15.13,3.68,17.35,0.54,31.35,4.55c10.21,2.93,16.93,7.37,22.48,12.15
		c7.33,6.31,12.44,14,24.09,21.85c4.52,3.05,9.2,5.76,16.35,9.07c11.07,5.13,19.89,7.91,29.92,9.16c4.85,0.6,9.93,0.84,15.15,0.44
		c7.53-0.57,17.91-2.8,28.07-7.63c10.7-5.08,15.65-11.12,28.67-15.46c8.76-2.92,19.37-4.93,35.28-6.54c4.59-0.46,9.27-0.54,14-0.47
		c39.72,0.52,66.59,11.6,79.15,12.53c39.86,2.95,32.99-9.68,73.77-27.62c30.25-13.31,36.97-34.61,76.21-22.73
		c2.2,0.67,4.39,1.35,6.57,2.1c31.08,10.83,42.68,23.99,67.16,37.5c12.1,6.68,25.25,13.65,41.99,18.54
		c8.42,2.46,17.71,4.33,27.74,4.77c26.37,1.14,54.9-7.85,84.35-24.55"/>
	<path class="st1" d="M-14.07,130.8c7.7-2.92,18.65-6.09,30.95-4.81c10.99,1.14,16.61,4.51,23.86,7.17c2.84,1.04,5.8,2.01,9.37,2.7
		c21.86,4.2,31.87-6.17,52-0.8c5.85,1.56,10.12,4.19,14.12,7.26c7.13,5.43,12.65,11.84,23.59,15.02
		c34.1,9.93,81.86-20.12,115.42-44.56c23.24-16.92,30.74-29.75,49.46-30.4c17.39-0.6,25.26,14.03,51.84,20.44
		c15.36,3.73,17.42,0.4,31.74,4.42c10.33,2.9,17.16,7.31,22.87,12.11c7.53,6.32,12.95,14,24.82,21.81c4.62,3.04,9.36,5.71,16.36,8.9
		c10.9,4.97,19.76,7.67,29.85,8.96c4.82,0.61,9.87,0.89,15.09,0.59c7.42-0.43,17.78-2.46,28.21-7.02
		c10.71-4.69,16.36-10.38,29.48-14.44c8.94-2.77,19.63-4.68,35.22-6.21c4.57-0.45,9.23-0.53,13.94-0.5
		c39.88,0.31,66.36,10.53,79.08,11.42c38.7,2.71,32.4-9.14,73.35-27.92c29.7-13.61,36.2-35.12,75.77-23
		c2.2,0.67,4.38,1.36,6.55,2.11c31.17,10.9,43.23,23.9,67.16,37.14c12.06,6.67,25.12,13.59,41.87,18.54
		c8.37,2.47,17.62,4.41,27.65,4.98c26.25,1.49,55.1-6.55,85.43-22.36"/>
	<path class="st1" d="M-13.98,133.73c7.68-2.81,18.61-5.82,30.87-4.37c11.05,1.31,16.52,4.83,23.64,7.58
		c2.79,1.08,5.73,2.07,9.3,2.76c21.77,4.21,31.7-7.05,51.82-1.91c5.87,1.5,10.1,4.13,14.03,7.21c6.99,5.46,12.33,12.01,23.26,15.31
		c33.81,10.22,81.65-20,114.48-44.6c23.24-17.41,30.25-30.48,48.69-31.18c17.45-0.66,25.17,14.41,52.31,20.95
		c15.59,3.78,17.49,0.26,32.12,4.29c10.45,2.88,17.39,7.26,23.26,12.06c7.73,6.32,13.45,14.01,25.54,21.77
		c4.72,3.03,9.51,5.67,16.37,8.73c10.74,4.8,19.63,7.43,29.78,8.76c4.79,0.63,9.82,0.95,15.04,0.74c7.31-0.3,17.66-2.13,28.34-6.42
		c10.71-4.3,17.07-9.63,30.3-13.43c9.12-2.61,19.89-4.42,35.16-5.89c4.55-0.44,9.19-0.47,13.88-0.52
		c40.03-0.43,66.13,9.46,79.01,10.31c37.54,2.47,31.82-8.59,72.92-28.21c29.15-13.91,35.43-35.63,75.34-23.27
		c2.19,0.68,4.37,1.37,6.53,2.12c31.25,10.96,43.77,23.8,67.17,36.78c12.03,6.67,25,13.53,41.74,18.55
		c8.31,2.49,17.53,4.48,27.57,5.19c26.14,1.84,55.3-5.26,86.51-20.17"/>
	<path class="st1" d="M-13.88,136.66c7.66-2.71,18.57-5.56,30.78-3.94c11.11,1.47,16.43,5.16,23.42,7.99
		c2.75,1.11,5.65,2.12,9.22,2.82c21.68,4.21,31.53-7.94,51.64-3.02c5.9,1.44,10.09,4.07,13.93,7.17c6.84,5.49,12,12.18,22.92,15.6
		c33.52,10.51,81.44-19.89,113.53-44.64c23.23-17.92,29.76-31.22,47.92-31.96c17.52-0.72,25.08,14.79,52.78,21.45
		c15.81,3.82,17.56,0.13,32.51,4.17c10.56,2.85,17.62,7.21,23.66,12.02c7.94,6.32,13.96,14.01,26.27,21.73
		c4.82,3.02,9.67,5.62,16.38,8.56c10.58,4.63,19.49,7.19,29.71,8.56c4.76,0.64,9.78,1.32,14.98,0.89c7.18-0.6,17.53-1.82,28.48-5.82
		c10.72-3.92,17.78-8.88,31.12-12.41c9.3-2.46,20.15-4.17,35.11-5.56c4.53-0.42,9.15-0.47,13.82-0.54
		c40.18-0.61,65.9,8.39,78.94,9.2c36.38,2.24,31.25-8.03,72.5-28.51c28.6-14.2,34.66-36.15,74.9-23.54
		c2.19,0.69,4.36,1.39,6.51,2.13c31.34,11.03,44.32,23.71,67.18,36.41c12,6.67,24.87,13.47,41.61,18.56
		c8.26,2.51,17.44,4.56,27.48,5.4c26.03,2.18,55.5-3.96,87.59-17.99"/>
	<path class="st1" d="M-13.78,139.59c7.63-2.6,18.53-5.29,30.69-3.5c11.17,1.64,16.33,5.48,23.2,8.39c2.7,1.15,5.58,2.18,9.15,2.88
		c21.58,4.22,31.35-8.83,51.46-4.13c5.93,1.39,10.07,4.01,13.84,7.13c6.7,5.52,11.67,12.35,22.59,15.89
		c33.23,10.8,81.21-19.77,112.58-44.68c23.21-18.43,29.27-31.96,47.15-32.74c17.59-0.77,25,15.17,53.25,21.96
		c16.04,3.87,17.62-0.01,32.9,4.04c10.68,2.83,17.85,7.16,24.05,11.98c8.14,6.33,14.47,14.01,27,21.69
		c4.91,3.01,9.83,5.58,16.4,8.39c10.42,4.47,19.36,6.95,29.64,8.36c4.73,0.65,9.71,1.36,14.92,1.03c7.08-0.44,17.41-1.51,28.61-5.21
		c10.73-3.55,18.48-8.13,31.93-11.39c9.47-2.3,20.41-3.92,35.05-5.24c4.51-0.41,9.11-0.53,13.76-0.57
		c40.33-0.32,65.67,7.33,78.87,8.08c35.22,2.01,30.69-7.45,72.08-28.81c28.07-14.49,33.89-36.66,74.47-23.82
		c2.19,0.69,4.35,1.4,6.49,2.14c31.42,11.1,44.87,23.62,67.18,36.05c11.96,6.67,24.74,13.42,41.48,18.56
		c8.2,2.52,17.35,4.63,27.39,5.61c25.93,2.53,55.7-2.67,88.67-15.8"/>
	<path class="st1" d="M-13.68,142.51c7.61-2.49,18.49-5.02,30.61-3.06c11.22,1.81,16.24,5.81,22.98,8.8
		c2.66,1.18,5.51,2.23,9.07,2.93c21.49,4.22,31.18-9.72,51.27-5.23c5.96,1.33,10.06,3.94,13.75,7.08
		c6.55,5.55,11.34,12.51,22.25,16.19c32.94,11.09,80.98-19.67,111.63-44.72c23.18-18.94,28.78-32.69,46.38-33.53
		c17.65-0.83,24.91,15.55,53.72,22.46c16.27,3.92,17.69-0.14,33.29,3.91c10.8,2.8,18.09,7.11,24.44,11.93
		c8.34,6.33,14.97,14.02,27.72,21.65c5.01,3,9.98,5.53,16.41,8.22c10.26,4.3,19.23,6.7,29.56,8.16c4.7,0.66,9.65,1.39,14.86,1.18
		c6.98-0.27,17.28-1.21,28.75-4.61c10.75-3.18,19.19-7.37,32.75-10.37c9.65-2.13,20.67-3.66,34.99-4.91
		c4.49-0.39,9.07-0.53,13.7-0.59c40.49-0.53,65.43,6.27,78.8,6.97c34.06,1.78,30.15-6.85,71.66-29.1
		c27.54-14.77,33.13-37.18,74.04-24.09c2.18,0.7,4.34,1.41,6.46,2.15c31.51,11.17,45.42,23.52,67.19,35.69
		c11.93,6.67,24.61,13.36,41.36,18.57c8.15,2.54,17.27,4.7,27.3,5.82c25.82,2.88,55.91-1.37,89.75-13.61"/>
	<path class="st1" d="M-13.59,145.44c7.58-2.38,18.45-4.74,30.52-2.62c11.28,1.98,16.14,6.13,22.76,9.21c2.61,1.21,5.43,2.29,9,2.99
		c21.39,4.23,31-10.61,51.09-6.34c5.98,1.27,10.04,3.88,13.65,7.04c6.41,5.58,11.02,12.68,21.92,16.48
		c32.66,11.37,80.74-19.56,110.69-44.76c23.14-19.47,28.28-33.43,45.61-34.31c17.72-0.89,24.82,15.93,54.19,22.97
		c16.49,3.97,17.76-0.27,33.67,3.78c10.92,2.78,18.32,7.06,24.83,11.89c8.55,6.34,15.48,14.02,28.45,21.61
		c5.11,2.99,10.14,5.48,16.42,8.05c10.09,4.13,19.1,6.46,29.49,7.95c4.67,0.67,9.59,1.17,14.8,1.33c6.87,0.21,17.16-0.93,28.88-4
		c10.77-2.82,19.89-6.61,33.56-9.35c9.83-1.97,20.93-3.41,34.93-4.58c4.48-0.38,9.03-0.53,13.64-0.61
		c40.64-0.74,65.2,5.22,78.72,5.86c32.9,1.56,29.63-6.24,71.24-29.4c27.02-15.04,32.36-37.69,73.6-24.36
		c2.18,0.71,4.33,1.42,6.44,2.16c31.59,11.23,45.96,23.43,67.19,35.33c11.89,6.67,24.49,13.3,41.23,18.58
		c8.1,2.55,17.18,4.77,27.21,6.03c25.71,3.22,56.11-0.07,90.83-11.42"/>
	<path class="st1" d="M-13.49,148.37c7.56-2.27,18.41-4.47,30.43-2.19c11.34,2.15,16.05,6.46,22.54,9.62
		c2.57,1.25,5.36,2.34,8.93,3.05c21.3,4.24,30.83-11.5,50.91-7.45c6.01,1.21,10.02,3.82,13.56,7c6.26,5.61,10.69,12.84,21.58,16.77
		c32.37,11.66,80.49-19.46,109.74-44.8c23.09-20,27.79-34.17,44.84-35.09c17.79-0.96,24.73,16.31,54.66,23.47
		c16.72,4.01,17.83-0.41,34.06,3.65c11.04,2.75,18.54,7.02,25.23,11.85c8.74,6.36,15.98,14.02,29.18,21.57
		c5.21,2.98,10.3,5.44,16.43,7.88c9.93,3.96,18.96,6.22,29.42,7.75c4.64,0.68,9.54,1.22,14.74,1.48c6.76,0.33,17.05-0.65,29.02-3.4
		c10.79-2.47,20.6-5.85,34.38-8.33c10-1.8,21.19-3.15,34.87-4.26c4.46-0.36,8.99-0.53,13.57-0.64c40.79-0.96,64.97,4.17,78.65,4.75
		c31.74,1.35,29.12-5.61,70.81-29.7c26.51-15.32,31.59-38.21,73.17-24.64c2.18,0.71,4.32,1.43,6.42,2.17
		c31.68,11.3,46.49,23.38,67.2,34.97c11.85,6.69,24.36,13.24,41.1,18.58c8.04,2.57,17.09,4.85,27.12,6.24
		c25.6,3.56,56.31,1.22,91.91-9.23"/>
	<path class="st1" d="M-13.39,151.29c7.54-2.17,18.36-4.2,30.35-1.75c11.39,2.33,15.95,6.8,22.32,10.03
		c2.52,1.29,5.29,2.39,8.85,3.11c21.2,4.24,30.65-12.39,50.73-8.56c6.04,1.15,10.01,3.75,13.46,6.95
		c6.12,5.64,10.36,13.01,21.25,17.06c32.09,11.94,80.23-19.37,108.79-44.84c23.03-20.54,27.3-34.91,44.08-35.87
		c17.85-1.02,24.65,16.69,55.13,23.98c16.95,4.06,17.89-0.54,34.45,3.52c11.15,2.73,18.77,6.97,25.62,11.8
		c8.95,6.36,16.49,14.02,29.91,21.53c5.3,2.97,10.46,5.39,16.44,7.71c9.77,3.79,18.83,5.97,29.35,7.55
		c4.62,0.69,9.48,1.27,14.68,1.63c6.66,0.46,16.93-0.39,29.15-2.79c10.83-2.13,21.3-5.09,35.2-7.32
		c10.18-1.63,21.45-2.89,34.81-3.93c4.44-0.34,8.95-0.53,13.51-0.66c40.94-1.18,64.74,3.12,78.58,3.63
		c30.58,1.14,28.62-4.97,70.39-30c26.01-15.59,30.83-38.73,72.74-24.91c2.18,0.72,4.31,1.44,6.4,2.18
		c31.76,11.37,47.04,23.28,67.2,34.6c11.81,6.68,24.24,13.15,40.97,18.59c7.99,2.57,17,4.92,27.03,6.45c25.5,3.9,56.51,2.52,93-7.05
		"/>
	<path class="st1" d="M-13.29,154.22c7.51-2.06,18.32-3.92,30.26-1.31c11.45,2.5,15.85,7.12,22.1,10.43
		c2.48,1.32,5.21,2.45,8.78,3.17c21.11,4.25,30.48-13.28,50.55-9.67c6.07,1.09,9.99,3.69,13.37,6.91
		c5.97,5.68,10.04,13.17,20.92,17.35c31.81,12.21,79.96-19.27,107.84-44.88c22.96-21.08,26.81-35.65,43.31-36.65
		c17.92-1.09,24.56,17.07,55.59,24.48c17.17,4.11,17.96-0.67,34.84,3.39c11.27,2.71,19.01,6.91,26.01,11.76
		c9.15,6.36,17.01,14,30.63,21.49c5.41,2.95,10.61,5.34,16.46,7.54c9.61,3.62,18.7,5.73,29.28,7.35c4.59,0.7,9.43,1.32,14.62,1.77
		c6.55,0.58,16.82-0.14,29.29-2.19c10.87-1.79,22-4.32,36.01-6.3c10.35-1.46,21.71-2.64,34.75-3.6c4.42-0.33,8.91-0.53,13.45-0.68
		c41.09-1.4,64.51,2.08,78.51,2.52c29.42,0.93,28.15-4.31,69.97-30.29c25.52-15.85,30.09-39.33,72.3-25.18
		c2.18,0.72,4.3,1.45,6.38,2.19c31.85,11.44,47.59,23.18,67.21,34.24c11.78,6.68,24.11,13.09,40.85,18.6
		c7.94,2.59,16.91,4.99,26.95,6.66c25.39,4.24,56.71,3.81,94.08-4.86"/>
	<path class="st1" d="M-13.2,157.15c7.49-1.95,18.27-3.65,30.17-0.87c11.5,2.68,15.76,7.44,21.89,10.84c2.43,1.36,5.14,2.5,8.7,3.23
		c21.02,4.25,30.31-14.22,50.36-10.78c6.1,1.02,9.97,3.63,13.28,6.87c5.83,5.71,9.72,13.33,20.58,17.64
		c31.53,12.49,79.68-19.17,106.9-44.92c22.87-21.64,26.31-36.4,42.54-37.44c17.98-1.15,24.47,17.45,56.06,24.99
		c17.4,4.16,18.03-0.79,35.22,3.26c11.39,2.68,19.24,6.86,26.4,11.72c9.36,6.36,17.51,14.01,31.36,21.45
		c5.5,2.94,10.77,5.28,16.47,7.37c9.46,3.43,18.57,5.47,29.21,7.15c4.56,0.71,9.38,1.36,14.56,1.92c6.45,0.7,16.72,0.11,29.43-1.59
		c10.91-1.46,22.69-3.56,36.83-5.28c10.52-1.28,21.97-2.35,34.69-3.28c4.4-0.3,8.87-0.54,13.39-0.71
		c41.24-1.7,64.28,1.05,78.44,1.41c28.27,0.72,27.69-3.64,69.55-30.59c25.04-16.12,29.31-39.83,71.87-25.45
		c2.17,0.73,4.29,1.46,6.35,2.2c31.93,11.5,48.14,23.08,67.21,33.88c11.75,6.68,23.98,13.04,40.72,18.61
		c7.88,2.61,16.83,5.06,26.86,6.87c25.28,4.58,56.92,5.11,95.16-2.67"/>
	<path class="st1" d="M-13.1,160.07c7.46-1.84,18.23-3.37,30.09-0.44c11.56,2.86,15.67,7.77,21.67,11.25
		c2.39,1.39,5.07,2.56,8.63,3.28c20.92,4.26,30.13-15.09,50.18-11.89c6.12,0.96,9.96,3.57,13.18,6.82
		c5.68,5.74,9.4,13.48,20.25,17.93c31.27,12.72,79.38-19.08,105.95-44.96c22.78-22.2,25.82-37.16,41.77-38.22
		c18.05-1.24,24.39,17.83,56.53,25.49c17.63,4.2,18.09-0.9,35.61,3.13c11.51,2.68,19.47,6.81,26.79,11.67
		c9.56,6.36,18.01,14.01,32.09,21.41c5.6,2.93,10.93,5.24,16.48,7.2c9.29,3.27,18.44,5.23,29.13,6.95c4.53,0.72,9.33,1.41,14.5,2.07
		c6.34,0.81,16.62,0.35,29.56-0.98c10.97-1.12,23.39-2.79,37.64-4.26c10.69-1.11,22.23-2.11,34.63-2.95
		c4.39-0.29,8.83-0.53,13.33-0.73c41.39-1.89,64.05,0.02,78.37,0.3c27.11,0.52,27.25-2.95,69.13-30.89
		c24.56-16.38,28.54-40.33,71.43-25.73c2.17,0.74,4.28,1.47,6.33,2.21c32.02,11.57,48.69,22.98,67.22,33.52
		c11.72,6.67,23.85,12.98,40.59,18.61c7.83,2.62,16.74,5.11,26.77,7.08c25.19,4.89,57.12,6.4,96.24-0.48"/>
	<path class="st1" d="M-13,163c7.44-1.74,18.18-3.09,30,0c16.24,4.25,17.52,12.44,30,15c20.83,4.27,29.95-15.97,50-13
		c16.97,2.51,16,17.84,33,25c30.98,13.04,79.08-18.98,105-45c22.67-22.76,25.33-37.88,41-39c18.11-1.29,24.3,18.21,57,26
		c17.85,4.25,18.16-1.05,36,3c26.81,6.09,34.75,20.03,60,33c19.32,9.93,35.16,12.29,60,16c16.84,2.51,63.14-4.35,116-7
		c116.04-5.81,81.77,13.07,147-32c24.09-16.65,27.77-40.83,71-26c58.37,20.02,69.85,38.99,114,54c27.22,9.25,68.01,17.38,124,9"/>
</g>
</svg>
